<svg xmlns="http://www.w3.org/2000/svg" viewBox="0 0 528.49 460.4"><defs><style>.cls-1{fill:#fc60a8;}.cls-2{fill:#0e83cd;}</style></defs><title>资源 1</title><g id="图层_2" data-name="图层 2"><g id="图层_1-2" data-name="图层 1"><path class="cls-1" d="M528.49,277.7,393,153.39l-19.06,20.78L486.84,277.7"/><path class="cls-1" d="M41.74,277.7,154.66,174.08,135.6,153.3.09,277.7"/><path class="cls-2" d="M264.64,0l-200,115.5-.4,230.2,199.6,114.7,200-115.5.4-230.2Zm92.6,328.8-18.4,10.7-18.6-11V249.2h-112v79.6l-18.4,10.7-18.6-11v-197l18.5-10.6,18.5,10.8v79.5h112V131.6l18.5-10.6,18.5,10.8Z"/><path class="cls-1" d="M.09,277.7H0v81.94c0,37,35.68,67.21,79.5,67.21h83.56c43.82,0,79.5-30.17,79.5-67.21V305.8h43.37v53.84c0,37,35.68,67.21,79.5,67.21H449c43.81,0,79.5-30.17,79.5-67.21V277.7"/></g></g></svg>